<?xml version="1.0" encoding="UTF-8" standalone="no"?>
<svg
   xmlns:dc="http://purl.org/dc/elements/1.1/"
   xmlns:cc="http://creativecommons.org/ns#"
   xmlns:rdf="http://www.w3.org/1999/02/22-rdf-syntax-ns#"
   xmlns:svg="http://www.w3.org/2000/svg"
   xmlns="http://www.w3.org/2000/svg"
   xmlns:sodipodi="http://sodipodi.sourceforge.net/DTD/sodipodi-0.dtd"
   xmlns:inkscape="http://www.inkscape.org/namespaces/inkscape"
   sodipodi:docname="W. L. Gore and Associates logo.svg"
   inkscape:version="1.0 (4035a4fb49, 2020-05-01)"
   id="svg5847"
   version="1.1"
   viewBox="0 0 132.82083 53.445835"
   height="202"
   width="502">
  <defs
     id="defs5841" />
  <sodipodi:namedview
     inkscape:window-maximized="1"
     inkscape:window-y="-9"
     inkscape:window-x="-9"
     inkscape:window-height="1001"
     inkscape:window-width="1920"
     fit-margin-right="1"
     fit-margin-bottom="1"
     fit-margin-left="1"
     fit-margin-top="1"
     units="px"
     showgrid="false"
     inkscape:document-rotation="0"
     inkscape:current-layer="layer1"
     inkscape:document-units="mm"
     inkscape:cy="370.17887"
     inkscape:cx="-165.13384"
     inkscape:zoom="0.70710678"
     inkscape:pageshadow="2"
     inkscape:pageopacity="0.0"
     borderopacity="1.0"
     bordercolor="#666666"
     pagecolor="#ffffff"
     id="base" />
  <metadata
     id="metadata5844">
    <rdf:RDF>
      <cc:Work
         rdf:about="">
        <dc:format>image/svg+xml</dc:format>
        <dc:type
           rdf:resource="http://purl.org/dc/dcmitype/StillImage" />
        <dc:title></dc:title>
      </cc:Work>
    </rdf:RDF>
  </metadata>
  <g
     transform="translate(-152.43779,-107.53422)"
     id="layer1"
     inkscape:groupmode="layer"
     inkscape:label="Layer 1">
    <g
       id="g5839"
       transform="matrix(1.4699074,0,0,1.4699074,-559.03712,-942.63952)">
      <path
         style="fill:#000000;fill-opacity:1;fill-rule:nonzero;stroke:none"
         d="m 484.20703,750.62891 h 70.1875 v -36 h -70.1875 z m 0,0"
         id="path1151" />
      <path
         style="fill:#ffffff;fill-opacity:1;fill-rule:nonzero;stroke:none"
         d="m 485.76562,716.1875 h 67.07422 v 32.88281 h -67.07422 z m 0,0"
         id="path1153" />
      <path
         style="fill:#ee3023;fill-opacity:1;fill-rule:nonzero;stroke:none"
         d="m 493.52734,720.03125 48.40625,6.80469 -12.28906,18.92578 44.5625,-25.73047 z m 0,0"
         id="path1155" />
      <path
         style="fill:#000000;fill-opacity:1;fill-rule:nonzero;stroke:none"
         d="m 525.64453,737.01172 c 0.082,-0.29688 0.35547,-0.4336 0.57813,-0.4336 h 4.9414 l 0.73438,-2.72656 h -5.40625 l 0.90625,-3.38281 c 0.0781,-0.30078 0.35547,-0.43359 0.57812,-0.43359 h 4.94141 l 0.76172,-2.83594 h -6.22266 c -1.45703,0 -2.40234,1.05859 -2.66406,2.04297 L 521.875,740.13281 C 521.53906,741.375 522.5,742.5 523.68359,742.5 h 6.15235 l 0.76172,-2.83594 h -5.34375 c -0.17188,0 -0.27735,-0.15625 -0.23438,-0.3125 z M 518.12109,742.5 h 3.0586 l -2.39063,-5.92188 h 0.35547 c 1.45313,0 2.39844,-1.05859 2.66406,-2.04296 l 1.33203,-4.96485 c 0.33204,-1.24609 -0.625,-2.37109 -1.8125,-2.37109 h -5.01562 c -1.45313,0 -2.40234,1.05859 -2.66406,2.04297 L 510.09766,742.5 h 2.93359 l 2.03125,-7.57813 z m -2.77343,-8.64844 0.90625,-3.38281 c 0.082,-0.30078 0.35546,-0.43359 0.57812,-0.43359 h 2.92969 c 0.17187,0 0.27734,0.15625 0.23437,0.3125 l -0.82031,3.07031 c -0.082,0.29687 -0.35937,0.43359 -0.57812,0.43359 z m -21.3711,-6.65234 c -1.45312,0 -2.40234,1.05859 -2.66406,2.04297 l -2.91797,10.89062 c -0.33203,1.24219 0.625,2.36719 1.8125,2.36719 h 5.01563 c 1.45312,0 2.39843,-1.05859 2.66406,-2.04297 l 1.76953,-6.60547 h -4.92578 L 494,736.57812 h 1.99219 l -0.71094,2.65625 c -0.082,0.29688 -0.35547,0.42969 -0.57813,0.42969 h -2.92968 c -0.17188,0 -0.27735,-0.15625 -0.23438,-0.3125 l 2.37891,-8.88281 c 0.082,-0.30078 0.35547,-0.43359 0.57812,-0.43359 h 5.86328 l 0.75782,-2.83594 z m 11.8086,12.46484 c 0.22265,0 0.49609,-0.13281 0.57812,-0.42969 l 2.37891,-8.88671 c 0.043,-0.15625 -0.0625,-0.3125 -0.23438,-0.3125 h -2.92969 c -0.21875,0 -0.49609,0.13281 -0.57812,0.43359 l -2.37891,8.88281 c -0.043,0.15625 0.0664,0.3125 0.23438,0.3125 z m -4.4961,2.83594 c -1.18359,0 -2.14453,-1.125 -1.8125,-2.36719 l 2.91797,-10.89062 c 0.26563,-0.98438 1.21094,-2.04297 2.66797,-2.04297 h 5.01172 c 1.1875,0 2.14844,1.125 1.8125,2.37109 l -2.91797,10.88672 c -0.26172,0.98438 -1.21094,2.04297 -2.66406,2.04297 z m 0,0"
         id="path1157" />
    </g>
  </g>
</svg>
