<svg fill="#ffffff" height="111" viewBox="0 0 424 111" width="424" xmlns="http://www.w3.org/2000/svg"><path d="m213.858 80.9885h-32.903v-46.9885h32.606v5.0698h-27.228v15.7432h26.393v5.0353h-26.393v16.0762h27.531v5.064z"/><path d="m256.305 38.1626-28.565 37.7217h28.662v5.1042h-35.811v-4.1626l28.598-37.7217h-26.998v-5.1042h34.114z"/><path d="m298.849 38.1626-28.565 37.7217h28.662v5.1042h-35.811v-4.1626l28.599-37.7217h-28.262v-5.1042h35.377z"/><path d="m338.124 80.9885h-32.44v-46.9885h5.378v41.8843h27.062z"/><path d="m377.759 80.9885h-32.908v-46.9885h32.605v5.0698h-27.227v15.7432h26.393v5.0353h-26.393v16.0762h27.53z"/><path d="m402.209 59.8425c4.743 0 8.727-1.2574 11.522-3.5425 2.789-2.2851 4.269-5.5405 4.269-9.4218 0-4.1109-1.383-7.3204-4.104-9.5366-2.731-2.2163-6.681-3.3416-11.75-3.3416h-12.596-5.058v46.9885h5.378v-41.9245h12.213c6.778 0 10.362 2.7043 10.362 7.8142 0 5.242-3.584 7.929-10.362 7.929h-6.55v5.0353l16.032 21.146h6.423l-16.008-21.146z"/><path d="m144.378 81.0011h-5.378v-46.9885h5.378z"/><path d="m156.311 57.3278 17.655-23.3278h-6.424l-15.774 20.8072v.8785 4.1568l16.031 21.146h6.424z"/><path clip-rule="evenodd" d="m54.8958 18.5257c1.4322-.8285 2.3958-2.3771 2.3958-4.1507 0-2.6464-2.1453-4.79167-4.7916-4.79167s-4.7917 2.14527-4.7917 4.79167c0 1.7736.9636 3.3222 2.3958 4.1507v36.5785h-36.5785c-.8284-1.4323-2.377-2.3959-4.15062-2.3959-2.64637 0-4.79167 2.1454-4.79167 4.7917s2.1453 4.7917 4.79167 4.7917c1.77362 0 3.32222-.9636 4.15062-2.3959h36.5785v36.5785c-1.4322.8286-2.3958 2.3771-2.3958 4.1507 0 2.646 2.1454 4.792 4.7917 4.792s4.7916-2.146 4.7916-4.792c0-1.7736-.9636-3.3222-2.3958-4.1507v-36.3274l36.2321 38.8201c-.1905.5166-.2946 1.075-.2946 1.658 0 2.646 2.1454 4.792 4.7917 4.792s4.792-2.146 4.792-4.792c0-2.6463-2.1457-4.7917-4.792-4.7917-.4667 0-.9179.0668-1.3444.1912l-33.7201-36.1287h30.9138c.8285 1.4323 2.3771 2.3959 4.1507 2.3959 2.6463 0 4.792-2.1454 4.792-4.7917s-2.1457-4.7917-4.792-4.7917c-1.7736 0-3.3222.9636-4.1507 2.3959h-30.9138l33.7201-36.1287c.4265.1244.8777.1912 1.3444.1912 2.6463 0 4.792-2.1454 4.792-4.7917 0-2.6464-2.1457-4.79167-4.792-4.79167s-4.7917 2.14527-4.7917 4.79167c0 .5828.1041 1.1414.2946 1.6579l-36.2321 38.8202z" fill-rule="evenodd"/></svg>